<!-- This is an SVG sprite that we added in its entirety and hidden visually. -->
<svg 
aria-hidden="true" 
xmlns="http://www.w3.org/2000/svg" 
overflow="hidden">
    <defs>
        <!-- Glass -->
        <symbol id="glass">
            <path d="M3.64538 0.224613C3.09858 0.517582 2.78201 1.10352 2.78201 1.79688C2.7916 3.06641 3.10817 4.22852 3.74131 5.23438L4.01951 5.69336L3.49189 6.28907C2.89713 6.95313 2.75323 7.19727 2.48463 7.98829C2.26399 8.63282 2.2448 9.80469 2.43666 10.459C3.10817 12.7051 5.33375 14.0039 7.51137 13.4277C8.25003 13.2324 8.7009 12.9883 9.3916 12.4023L9.97678 11.9141L10.5236 12.1875C10.8306 12.3438 11.3486 12.5684 11.6843 12.6953L12.2791 12.9102V14.0039C12.2791 15.7324 12.634 16.7578 13.5454 17.6856C14.4567 18.6133 15.8861 19.0918 17.1236 18.877C18.0061 18.7207 18.8695 18.2813 19.4547 17.6856C20.366 16.7578 20.721 15.7324 20.721 14.0039V12.9102L21.3253 12.6953C21.6515 12.5684 22.1695 12.3438 22.4765 12.1875L23.0233 11.9141L23.6085 12.4023C24.2992 12.9883 24.75 13.2324 25.4887 13.4277C27.6663 14.0039 29.8919 12.7051 30.5634 10.459C30.7553 9.80469 30.7361 8.63282 30.5154 7.98829C30.2468 7.19727 30.1029 6.95313 29.5082 6.28907L28.9806 5.69336L29.2588 5.23438C29.8919 4.22852 30.2085 3.06641 30.2181 1.79688C30.2181 1.10352 29.9015 0.517582 29.3547 0.224613L28.9422 3.8147e-06H16.5H4.05788L3.64538 0.224613ZM26.6686 3.28125C26.6686 3.31055 26.3904 3.76954 26.0451 4.31641C25.0282 5.92774 25.0666 6.2793 26.4192 7.70508C26.9085 8.22266 27.3593 8.74024 27.4265 8.85743C27.791 9.58008 27.062 10.4785 26.2561 10.293C26.0643 10.2539 25.6422 9.91211 25.0282 9.30665C23.8003 8.09571 23.3782 7.95899 22.4381 8.4961C21.3541 9.1211 19.9727 9.75586 19.3012 9.94141C18.3515 10.2148 18.0253 10.4199 17.7759 10.9375C17.5745 11.3379 17.5553 11.5039 17.5553 13.0664C17.5553 14.9902 17.4785 15.3027 16.9317 15.5664C16.5384 15.7617 16.4617 15.7617 16.0683 15.5664C15.5215 15.3027 15.4448 14.9902 15.4448 13.0664C15.4448 11.5039 15.4256 11.3379 15.2338 10.9375C14.9747 10.4297 14.6486 10.2148 13.6989 9.94141C12.8739 9.70704 11.6556 9.16993 10.984 8.73047C10.3509 8.32032 9.79451 8.16407 9.35323 8.24219C9.06544 8.30079 8.77765 8.5254 8.01021 9.27735C7.37707 9.89258 6.9262 10.2539 6.73433 10.293C5.93811 10.4785 5.20904 9.57032 5.57358 8.85743C5.64073 8.74024 6.0916 8.22266 6.58085 7.70508C7.93346 6.2793 7.97184 5.92774 6.95497 4.31641C6.60963 3.76954 6.33143 3.31055 6.33143 3.28125C6.33143 3.24219 10.9073 3.22266 16.5 3.22266C22.0928 3.22266 26.6686 3.24219 26.6686 3.28125Z" fill="#FFA5BA"/>
            <path d="M0.757849 20.6348C0.268605 20.9668 0 21.4355 0 21.9531C0 22.3047 4.87326 48.3984 5.04593 48.9453C5.13227 49.248 5.48721 49.6094 5.86134 49.8047C6.21628 50 6.4657 50 16.5 50C26.5343 50 26.7837 50 27.1387 49.8047C27.5128 49.6094 27.8677 49.248 27.9541 48.9453C28.1267 48.3984 33 22.3047 33 21.9531C33 21.4355 32.7314 20.9668 32.2421 20.6348L31.916 20.4102H16.5H1.08401L0.757849 20.6348ZM29.2108 24.1895C29.1148 24.9707 28.5584 26.6699 28.1459 27.4414C26.141 31.1523 22.3421 33.4082 17.632 33.6719C14.073 33.877 11.0608 33.1543 8.53779 31.4941C7.07965 30.5371 5.86134 29.2285 4.99796 27.6855C4.51831 26.8359 3.88517 25.0098 3.78924 24.1895L3.72209 23.6328H16.5H29.2779L29.2108 24.1895ZM6.85901 34.248C10.9744 37.0215 17.1235 37.7539 22.3038 36.0742C24.0305 35.5176 25.7956 34.5801 27.273 33.4375C27.7047 33.0957 27.7334 33.0957 27.6855 33.3105C27.6567 33.4375 27.0907 36.4258 26.4288 39.9414C25.7669 43.457 25.2105 46.4355 25.1817 46.5527L25.1337 46.7773H16.5H7.86628L7.81831 46.5527C7.78953 46.4355 7.23314 43.457 6.57122 39.9414C5.9093 36.4258 5.34331 33.4375 5.31453 33.3105C5.26657 33.0957 5.29535 33.0957 5.72703 33.4375C5.97645 33.6328 6.49448 33.9941 6.85901 34.248Z" fill="#FFA5BA"/>
        </symbol>

        <!-- Apples -->
        <symbol id="apples">
            <g clip-path="url(#clip0_70758_16)">
            <path d="M46.2908 33.454C44.2721 32.738 42.5691 32.9172 41.2248 33.4823C41.4507 32.1116 41.9596 30.6199 43.0522 29.6062C43.726 28.9813 43.7654 27.9286 43.1404 27.2549C42.5159 26.5813 41.463 26.5418 40.7891 27.1667C38.8686 28.9482 38.1241 31.4611 37.861 33.5433C37.361 33.3189 36.8093 33.1475 36.2081 33.0567L39.1615 17.698C39.2553 17.2104 39.1265 16.7067 38.8103 16.3241C38.4943 15.9414 38.024 15.7199 37.5275 15.7199H37.2086C37.3551 14.9379 37.429 14.1616 37.4231 13.4232C37.3984 10.3081 36.0118 7.96162 33.7142 7.14664C31.5115 6.36515 29.6679 6.6 28.2346 7.24983C28.4618 5.72525 29.0068 4.02576 30.2373 2.88435C30.911 2.25943 30.9504 1.20674 30.3255 0.532999C29.7009 -0.14057 28.6479 -0.180133 27.9741 0.444783C25.9112 2.35859 25.1383 5.07795 24.8775 7.29849C23.7292 6.75455 22.3091 6.47576 20.6455 6.78249C18.9359 4.32727 16.5628 3.19563 14.2558 3.74866C11.9879 4.29327 10.5714 5.49142 9.72311 6.81448C9.0822 5.40943 8.61065 3.68738 9.01739 2.07054C9.24146 1.17929 8.70072 0.275254 7.80964 0.051012C6.91806 -0.173735 6.01436 0.36751 5.79011 1.25876C5.10375 3.98738 5.93793 6.6894 6.92951 8.69327C5.3418 8.90775 3.62126 9.70842 2.16604 11.6088C1.2625 12.7889 0.957623 14.2621 1.2349 15.8268C0.964862 15.9278 0.721596 16.0966 0.533717 16.3241C0.217724 16.7067 0.0887676 17.2104 0.182539 17.698L6.13422 48.6503C6.28489 49.4337 6.97042 50 7.76823 50H31.5756C32.3734 50 33.059 49.4337 33.2096 48.6503L33.2682 48.3458C33.7169 48.6549 34.1989 48.9135 34.7162 49.1062C36.6948 49.8429 38.5389 49.5406 39.4721 49.2906C39.9657 49.4229 40.7144 49.5699 41.6031 49.5699C42.394 49.5699 43.2962 49.4534 44.2278 49.1062C47.916 47.7322 49.8755 43.1072 49.8465 39.453C49.8233 36.4781 48.494 34.2355 46.2908 33.454ZM35.4287 19.0476C34.6625 26.3998 28.4723 31.4062 19.8489 31.4062C11.2255 31.4062 5.03523 26.3997 4.26907 19.0476H35.4287ZM25.0502 11.7421C25.3381 12.2867 25.8876 12.6276 26.5041 12.6276C27.1206 12.6276 27.6699 12.2867 27.958 11.7421C28.0032 11.667 28.4113 11.0141 29.1598 10.5283C30.1428 9.89057 31.2686 9.81027 32.6016 10.283C33.9309 10.7544 34.0889 12.6545 34.0953 13.4495C34.1011 14.1737 33.9948 14.9519 33.7975 15.7197H22.6637C23.0319 13.8611 22.8108 11.8263 22.2123 9.98738C22.8007 10.0216 23.3433 10.201 23.848 10.5283C24.5968 11.0141 25.0046 11.6668 25.0502 11.7421ZM4.80846 13.6317C5.66823 12.5089 6.65577 11.9626 7.82782 11.9615H7.83102C8.72227 11.9615 9.41873 12.2859 9.49718 12.3239C10.0298 12.62 10.6672 12.5929 11.1825 12.2657C11.7 11.9367 11.9795 11.3414 11.9342 10.7298C11.9253 10.6094 11.7537 7.77138 15.0329 6.98418C16.4021 6.65488 17.5726 8.16162 18.0113 8.82492C19.2726 10.7318 19.9197 13.6806 19.2251 15.7195H4.61756C4.39752 15.0281 4.33826 14.246 4.80846 13.6317ZM9.14298 46.6722L5.84466 29.5197C6.06082 29.7274 6.28338 29.9301 6.5125 30.1274C9.96217 33.098 14.6985 34.734 19.8489 34.734C24.9992 34.734 29.7356 33.0982 33.1852 30.1274C33.2657 30.0583 33.3443 29.9874 33.4231 29.9168L32.7492 33.4219C32.7172 33.4328 32.6857 33.4428 32.6536 33.454C30.4504 34.2355 29.1211 36.4781 29.0977 39.453C29.0832 41.2724 29.5622 43.3322 30.5014 45.1116L30.2014 46.6722H9.14298ZM43.0662 45.9879C41.5921 46.5369 40.1273 46.0152 40.0728 45.9953C39.6827 45.8443 39.2627 45.8406 38.8731 45.9948C38.8583 46.0005 37.3729 46.5446 35.8782 45.9877C33.7883 45.2093 32.4054 41.9938 32.4253 39.4793C32.4312 38.7515 32.5731 37.0133 33.766 36.5902C34.312 36.3966 34.7995 36.3172 35.233 36.3172C36.9635 36.3172 37.8228 37.5857 38.0176 37.9175C38.3049 38.4643 38.8543 38.8067 39.4723 38.8067C40.0905 38.8067 40.6396 38.464 40.927 37.9175C41.1706 37.5027 42.4529 35.6239 45.1785 36.5902C46.3713 37.0131 46.5133 38.7515 46.5192 39.4793C46.5389 41.9939 45.1561 45.2094 43.0662 45.9879Z" fill="#FFA5BA"/>
            </g>
            <defs>
            <clipPath id="clip0_70758_16">
            <rect width="50" height="50" fill="white"/>
            </clipPath>
            </defs>
        </symbol>

        <!-- Frozen heart -->
        <symbol id="frozen-heart">
        <rect width="46" height="52" fill="#E5E5E5"/>
        <g clip-path="url(#clip0_0_1)">
        <rect width="1200" height="4853" transform="translate(-815 -2513)" fill="white"/>
        <rect x="-815" y="-796" width="1200" height="1229" fill="#FFF5F6"/>
        <mask id="path-2-outside-1_0_1" maskUnits="userSpaceOnUse" x="0" y="0" width="46" height="52" fill="black">
        <rect fill="white" width="46" height="52"/>
        <path d="M10.5745 1.10816C6.00889 2.06473 2.46425 5.816 1.30839 10.9177C0.884578 12.6996 0.903842 16.132 1.32766 18.0826C2.27161 22.4153 4.37142 26.2604 7.68489 29.599C10.6516 32.6 13.2523 34.4194 17.3749 36.3138L19.5325 37.3266V44.1539V51H20.6883H21.8442V44.5478V38.0769L22.4221 38.2457C22.7496 38.3395 23.2505 38.3395 23.578 38.2457L24.1559 38.0769V44.5478V51H25.3118H26.4676V44.1539V37.3079L28.5289 36.3701C32.5166 34.5319 35.4063 32.5438 38.2189 29.6928C42.7075 25.135 44.9999 19.9583 44.9999 14.3314C45.0192 8.16054 41.7828 3.1526 36.697 1.44577C35.6182 1.07064 35.0595 1.01437 33.0175 1.03313C30.8792 1.05189 30.3975 1.12691 28.7793 1.63334C26.8722 2.25229 25.0035 3.22762 23.7706 4.24046L23.0578 4.84067L22.0176 4.07166C19.3398 2.10224 16.6043 1.14567 13.3871 1.01437C12.2698 0.976864 10.9984 1.01437 10.5745 1.10816ZM14.9668 3.43394C15.7759 3.58399 16.874 3.90285 17.4519 4.12793C18.6848 4.63435 20.7461 5.92854 21.5552 6.69754C22.8074 7.87919 23.1542 7.86044 24.5797 6.58501C26.8144 4.55932 30.4168 3.17135 33.3835 3.17135C37.4098 3.17135 41.0893 6.32242 42.2644 10.7677C42.4763 11.5554 42.6689 12.8309 42.6882 13.5999C42.7653 15.2879 42.7075 15.3442 40.0875 16.3383C37.9684 17.1448 36.1961 17.5387 33.1523 17.8763C31.2066 18.1014 30.8021 18.2139 30.2049 18.6453C28.972 19.5644 28.7793 20.2396 28.7793 24.0659C28.7793 26.9356 28.7408 27.4796 28.4518 27.7797C28.0473 28.2298 27.3345 28.2111 26.8529 27.7421C26.4869 27.3858 26.4676 27.1232 26.4676 23.3344C26.4676 19.133 26.352 18.4202 25.5622 17.5762C25.3888 17.3887 24.021 16.6572 22.5377 15.9257C20.8617 15.1379 19.1857 14.1626 18.184 13.3936C13.3486 9.77358 11.2103 8.74199 7.24181 8.12302C6.10521 7.93546 5.142 7.76665 5.10347 7.7479C4.93009 7.6166 5.97036 6.2849 6.91432 5.45963C9.14898 3.47145 11.6919 2.83374 14.9668 3.43394ZM8.59031 10.6739C10.5553 11.1616 12.7707 12.2682 14.7934 13.7687C15.6411 14.3876 16.7199 15.1754 17.2015 15.5318C18.4922 16.4883 20.6305 17.6888 22.2487 18.364C23.0386 18.7016 23.7899 19.0955 23.9247 19.2643C24.0981 19.4706 24.1559 20.6523 24.1559 23.597C24.1559 27.1419 24.2137 27.7421 24.5219 28.3986C25.1576 29.7491 26.1787 30.368 27.7391 30.368C28.7408 30.368 29.4343 30.0679 30.1664 29.2989C30.9947 28.4549 31.0911 27.9297 31.0911 24.3473C31.0911 20.2771 31.0525 20.3522 33.3257 20.1646C35.6374 19.9583 38.5078 19.3393 40.415 18.6453C41.3782 18.289 42.2066 18.0451 42.2451 18.1014C42.457 18.3077 41.0122 21.984 40.1646 23.4094C38.8161 25.7165 37.7565 27.0294 35.7145 28.9426C32.7478 31.7185 28.6638 34.1005 24.5027 35.526L23 36.0512L21.5167 35.526C17.0666 34.0255 13.1367 31.6435 9.97735 28.5862C5.97036 24.7411 3.87055 20.671 3.35041 15.8506C3.15777 14.05 3.44673 10.9552 3.88981 10.2237C4.04393 9.96115 6.79873 10.2425 8.59031 10.6739Z"/>
        </mask>
        <path d="M10.5745 1.10816C6.00889 2.06473 2.46425 5.816 1.30839 10.9177C0.884578 12.6996 0.903842 16.132 1.32766 18.0826C2.27161 22.4153 4.37142 26.2604 7.68489 29.599C10.6516 32.6 13.2523 34.4194 17.3749 36.3138L19.5325 37.3266V44.1539V51H20.6883H21.8442V44.5478V38.0769L22.4221 38.2457C22.7496 38.3395 23.2505 38.3395 23.578 38.2457L24.1559 38.0769V44.5478V51H25.3118H26.4676V44.1539V37.3079L28.5289 36.3701C32.5166 34.5319 35.4063 32.5438 38.2189 29.6928C42.7075 25.135 44.9999 19.9583 44.9999 14.3314C45.0192 8.16054 41.7828 3.1526 36.697 1.44577C35.6182 1.07064 35.0595 1.01437 33.0175 1.03313C30.8792 1.05189 30.3975 1.12691 28.7793 1.63334C26.8722 2.25229 25.0035 3.22762 23.7706 4.24046L23.0578 4.84067L22.0176 4.07166C19.3398 2.10224 16.6043 1.14567 13.3871 1.01437C12.2698 0.976864 10.9984 1.01437 10.5745 1.10816ZM14.9668 3.43394C15.7759 3.58399 16.874 3.90285 17.4519 4.12793C18.6848 4.63435 20.7461 5.92854 21.5552 6.69754C22.8074 7.87919 23.1542 7.86044 24.5797 6.58501C26.8144 4.55932 30.4168 3.17135 33.3835 3.17135C37.4098 3.17135 41.0893 6.32242 42.2644 10.7677C42.4763 11.5554 42.6689 12.8309 42.6882 13.5999C42.7653 15.2879 42.7075 15.3442 40.0875 16.3383C37.9684 17.1448 36.1961 17.5387 33.1523 17.8763C31.2066 18.1014 30.8021 18.2139 30.2049 18.6453C28.972 19.5644 28.7793 20.2396 28.7793 24.0659C28.7793 26.9356 28.7408 27.4796 28.4518 27.7797C28.0473 28.2298 27.3345 28.2111 26.8529 27.7421C26.4869 27.3858 26.4676 27.1232 26.4676 23.3344C26.4676 19.133 26.352 18.4202 25.5622 17.5762C25.3888 17.3887 24.021 16.6572 22.5377 15.9257C20.8617 15.1379 19.1857 14.1626 18.184 13.3936C13.3486 9.77358 11.2103 8.74199 7.24181 8.12302C6.10521 7.93546 5.142 7.76665 5.10347 7.7479C4.93009 7.6166 5.97036 6.2849 6.91432 5.45963C9.14898 3.47145 11.6919 2.83374 14.9668 3.43394ZM8.59031 10.6739C10.5553 11.1616 12.7707 12.2682 14.7934 13.7687C15.6411 14.3876 16.7199 15.1754 17.2015 15.5318C18.4922 16.4883 20.6305 17.6888 22.2487 18.364C23.0386 18.7016 23.7899 19.0955 23.9247 19.2643C24.0981 19.4706 24.1559 20.6523 24.1559 23.597C24.1559 27.1419 24.2137 27.7421 24.5219 28.3986C25.1576 29.7491 26.1787 30.368 27.7391 30.368C28.7408 30.368 29.4343 30.0679 30.1664 29.2989C30.9947 28.4549 31.0911 27.9297 31.0911 24.3473C31.0911 20.2771 31.0525 20.3522 33.3257 20.1646C35.6374 19.9583 38.5078 19.3393 40.415 18.6453C41.3782 18.289 42.2066 18.0451 42.2451 18.1014C42.457 18.3077 41.0122 21.984 40.1646 23.4094C38.8161 25.7165 37.7565 27.0294 35.7145 28.9426C32.7478 31.7185 28.6638 34.1005 24.5027 35.526L23 36.0512L21.5167 35.526C17.0666 34.0255 13.1367 31.6435 9.97735 28.5862C5.97036 24.7411 3.87055 20.671 3.35041 15.8506C3.15777 14.05 3.44673 10.9552 3.88981 10.2237C4.04393 9.96115 6.79873 10.2425 8.59031 10.6739Z"/>
        <path d="M10.5745 1.10816C6.00889 2.06473 2.46425 5.816 1.30839 10.9177C0.884578 12.6996 0.903842 16.132 1.32766 18.0826C2.27161 22.4153 4.37142 26.2604 7.68489 29.599C10.6516 32.6 13.2523 34.4194 17.3749 36.3138L19.5325 37.3266V44.1539V51H20.6883H21.8442V44.5478V38.0769L22.4221 38.2457C22.7496 38.3395 23.2505 38.3395 23.578 38.2457L24.1559 38.0769V44.5478V51H25.3118H26.4676V44.1539V37.3079L28.5289 36.3701C32.5166 34.5319 35.4063 32.5438 38.2189 29.6928C42.7075 25.135 44.9999 19.9583 44.9999 14.3314C45.0192 8.16054 41.7828 3.1526 36.697 1.44577C35.6182 1.07064 35.0595 1.01437 33.0175 1.03313C30.8792 1.05189 30.3975 1.12691 28.7793 1.63334C26.8722 2.25229 25.0035 3.22762 23.7706 4.24046L23.0578 4.84067L22.0176 4.07166C19.3398 2.10224 16.6043 1.14567 13.3871 1.01437C12.2698 0.976864 10.9984 1.01437 10.5745 1.10816ZM14.9668 3.43394C15.7759 3.58399 16.874 3.90285 17.4519 4.12793C18.6848 4.63435 20.7461 5.92854 21.5552 6.69754C22.8074 7.87919 23.1542 7.86044 24.5797 6.58501C26.8144 4.55932 30.4168 3.17135 33.3835 3.17135C37.4098 3.17135 41.0893 6.32242 42.2644 10.7677C42.4763 11.5554 42.6689 12.8309 42.6882 13.5999C42.7653 15.2879 42.7075 15.3442 40.0875 16.3383C37.9684 17.1448 36.1961 17.5387 33.1523 17.8763C31.2066 18.1014 30.8021 18.2139 30.2049 18.6453C28.972 19.5644 28.7793 20.2396 28.7793 24.0659C28.7793 26.9356 28.7408 27.4796 28.4518 27.7797C28.0473 28.2298 27.3345 28.2111 26.8529 27.7421C26.4869 27.3858 26.4676 27.1232 26.4676 23.3344C26.4676 19.133 26.352 18.4202 25.5622 17.5762C25.3888 17.3887 24.021 16.6572 22.5377 15.9257C20.8617 15.1379 19.1857 14.1626 18.184 13.3936C13.3486 9.77358 11.2103 8.74199 7.24181 8.12302C6.10521 7.93546 5.142 7.76665 5.10347 7.7479C4.93009 7.6166 5.97036 6.2849 6.91432 5.45963C9.14898 3.47145 11.6919 2.83374 14.9668 3.43394ZM8.59031 10.6739C10.5553 11.1616 12.7707 12.2682 14.7934 13.7687C15.6411 14.3876 16.7199 15.1754 17.2015 15.5318C18.4922 16.4883 20.6305 17.6888 22.2487 18.364C23.0386 18.7016 23.7899 19.0955 23.9247 19.2643C24.0981 19.4706 24.1559 20.6523 24.1559 23.597C24.1559 27.1419 24.2137 27.7421 24.5219 28.3986C25.1576 29.7491 26.1787 30.368 27.7391 30.368C28.7408 30.368 29.4343 30.0679 30.1664 29.2989C30.9947 28.4549 31.0911 27.9297 31.0911 24.3473C31.0911 20.2771 31.0525 20.3522 33.3257 20.1646C35.6374 19.9583 38.5078 19.3393 40.415 18.6453C41.3782 18.289 42.2066 18.0451 42.2451 18.1014C42.457 18.3077 41.0122 21.984 40.1646 23.4094C38.8161 25.7165 37.7565 27.0294 35.7145 28.9426C32.7478 31.7185 28.6638 34.1005 24.5027 35.526L23 36.0512L21.5167 35.526C17.0666 34.0255 13.1367 31.6435 9.97735 28.5862C5.97036 24.7411 3.87055 20.671 3.35041 15.8506C3.15777 14.05 3.44673 10.9552 3.88981 10.2237C4.04393 9.96115 6.79873 10.2425 8.59031 10.6739Z" stroke="#FFA5BA" mask="url(#path-2-outside-1_0_1)"/>
        </g>
        <defs>
        <clipPath id="clip0_0_1">
        <rect width="1200" height="4853" fill="white" transform="translate(-815 -2513)"/>
        </clipPath>
        </defs>
        </symbol>

        <symbol id="gato">
        <path d="M10 0C4.50745 0 0 4.50745 0 10C0 14.687 3.28888 18.9447 7.65625 20V16.6916C7.22351 16.7863 6.82526 16.7891 6.38474 16.6592C5.79376 16.4848 5.31357 16.0912 4.95712 15.4909C4.72992 15.1076 4.32724 14.6919 3.90717 14.7224L3.80417 13.5551C4.71252 13.4773 5.49835 14.1086 5.96481 14.8923C6.17203 15.2408 6.41052 15.4451 6.71661 15.5354C7.01248 15.6226 7.33017 15.5807 7.70035 15.45C7.79327 14.7089 8.13278 14.4315 8.38928 14.0408V14.0402C5.78461 13.6517 4.74655 12.2699 4.33456 11.1792C3.7886 9.73099 4.08157 7.92175 5.047 6.77841C5.06577 6.75613 5.09964 6.69785 5.08652 6.6571C4.64386 5.31998 5.18326 4.21387 5.20309 4.09653C5.71396 4.24759 5.79697 3.94455 7.42218 4.93195L7.70309 5.10071C7.82059 5.17075 7.78366 5.13077 7.90115 5.12192C8.57971 4.93759 9.29504 4.83582 9.99985 4.82666C10.71 4.83582 11.4207 4.93759 12.1274 5.12939L12.2183 5.13855C12.2104 5.13733 12.243 5.13275 12.2978 5.1001C14.328 3.87039 14.2551 4.27231 14.7995 4.09531C14.8192 4.2128 15.3514 5.33691 14.9135 6.6571C14.8544 6.83899 16.6736 8.50479 15.6653 11.1787C15.2533 12.2699 14.2154 13.6517 11.6107 14.0402V14.0408C11.9446 14.5497 12.3457 14.8204 12.3436 15.8702V20C16.7111 18.9447 19.9998 14.687 19.9998 10C20 4.50745 15.4926 0 10 0V0Z"/>
        </symbol>
    </defs>
</svg>



